<svg xmlns="http://www.w3.org/2000/svg" viewBox="0 0 542.25 354"><defs><style>.cls-1{fill:#f1f1f2;}.cls-2{fill:#262626;}.cls-3{fill:#c9c9c9;}.cls-4{fill:#e5e5e5;}.cls-5{fill:#e9e9ea;}.cls-6{fill:#cd2648;}.cls-7{fill:#f2d234;}.cls-8{fill:#87c540;}.cls-9{fill:#c8c8c8;}.cls-10{fill:#6e5fa9;}</style></defs><g id="Camada_2" data-name="Camada 2"><g id="a7-edu"><path class="cls-1" d="M271,30H0V344a10,10,0,0,0,10,10H532a10,10,0,0,0,10-10V30Z"/><path class="cls-2" d="M532,0H10A10,10,0,0,0,0,10V30H542V10A10,10,0,0,0,532,0Z"/><rect class="cls-3" x="114" y="55.66" width="303.67" height="162.8"/><path class="cls-4" d="M.25,56V344a10,10,0,0,0,10,10H114V56Z"/><path class="cls-4" d="M418,354H532.25a10,10,0,0,0,10-10V56H418Z"/><polygon class="cls-5" points="271.25 30 0.25 30 0.25 55.5 542.25 55.5 542.25 30 271.25 30"/><circle class="cls-6" cx="17.51" cy="15.92" r="6.54" transform="translate(-6.13 17.05) rotate(-45)"/><circle class="cls-7" cx="41.79" cy="15.92" r="6.54" transform="translate(0.98 34.22) rotate(-45)"/><circle class="cls-8" cx="65.14" cy="15.92" r="6.54"/><path class="cls-9" d="M91.07,115H35.87a3.53,3.53,0,0,1-3.54-3.54h0a3.53,3.53,0,0,1,3.54-3.54h55.2a3.53,3.53,0,0,1,3.54,3.54h0A3.53,3.53,0,0,1,91.07,115Z"/><path class="cls-9" d="M91.07,100.91H35.87a3.53,3.53,0,0,1-3.54-3.54h0a3.53,3.53,0,0,1,3.54-3.54h55.2a3.53,3.53,0,0,1,3.54,3.54h0A3.54,3.54,0,0,1,91.07,100.91Z"/><path class="cls-9" d="M91.07,143.19H35.87a3.53,3.53,0,0,1-3.54-3.54h0a3.53,3.53,0,0,1,3.54-3.54h55.2a3.53,3.53,0,0,1,3.54,3.54h0A3.54,3.54,0,0,1,91.07,143.19Z"/><path class="cls-9" d="M91.07,129.09H35.87a3.53,3.53,0,0,1-3.54-3.54h0A3.53,3.53,0,0,1,35.87,122h55.2a3.53,3.53,0,0,1,3.54,3.54h0A3.53,3.53,0,0,1,91.07,129.09Z"/><path class="cls-9" d="M91.07,171.38H35.87a3.53,3.53,0,0,1-3.54-3.54h0a3.53,3.53,0,0,1,3.54-3.54h55.2a3.53,3.53,0,0,1,3.54,3.54h0A3.54,3.54,0,0,1,91.07,171.38Z"/><path class="cls-9" d="M91.07,157.28H35.87a3.53,3.53,0,0,1-3.54-3.54h0a3.53,3.53,0,0,1,3.54-3.54h55.2a3.53,3.53,0,0,1,3.54,3.54h0A3.53,3.53,0,0,1,91.07,157.28Z"/><circle class="cls-9" cx="24.16" cy="96.88" r="5.11"/><circle class="cls-9" cx="24.16" cy="111.17" r="5.11"/><circle class="cls-9" cx="24.16" cy="125.47" r="5.11"/><circle class="cls-9" cx="24.16" cy="139.76" r="5.11"/><circle class="cls-9" cx="24.16" cy="154.06" r="5.11"/><circle class="cls-9" cx="24.16" cy="167.33" r="5.11"/><path class="cls-9" d="M65.51,83.61H23.65A4.59,4.59,0,0,1,19.06,79h0a4.58,4.58,0,0,1,4.59-4.59H65.51A4.59,4.59,0,0,1,70.11,79h0A4.59,4.59,0,0,1,65.51,83.61Z"/><path class="cls-9" d="M91.07,239.57H35.87A3.54,3.54,0,0,1,32.33,236h0a3.53,3.53,0,0,1,3.54-3.54h55.2A3.53,3.53,0,0,1,94.61,236h0A3.54,3.54,0,0,1,91.07,239.57Z"/><path class="cls-9" d="M91.07,225.48H35.87a3.54,3.54,0,0,1-3.54-3.55h0a3.53,3.53,0,0,1,3.54-3.54h55.2a3.53,3.53,0,0,1,3.54,3.54h0A3.55,3.55,0,0,1,91.07,225.48Z"/><path class="cls-9" d="M91.07,267.76H35.87a3.53,3.53,0,0,1-3.54-3.54h0a3.54,3.54,0,0,1,3.54-3.55h55.2a3.54,3.54,0,0,1,3.54,3.55h0A3.54,3.54,0,0,1,91.07,267.76Z"/><path class="cls-9" d="M91.07,253.66H35.87a3.54,3.54,0,0,1-3.54-3.55h0a3.53,3.53,0,0,1,3.54-3.54h55.2a3.53,3.53,0,0,1,3.54,3.54h0A3.54,3.54,0,0,1,91.07,253.66Z"/><path class="cls-9" d="M91.07,296H35.87a3.53,3.53,0,0,1-3.54-3.54h0a3.54,3.54,0,0,1,3.54-3.55h55.2a3.54,3.54,0,0,1,3.54,3.55h0A3.54,3.54,0,0,1,91.07,296Z"/><path class="cls-9" d="M91.07,281.85H35.87a3.53,3.53,0,0,1-3.54-3.54h0a3.54,3.54,0,0,1,3.54-3.55h55.2a3.54,3.54,0,0,1,3.54,3.55h0A3.53,3.53,0,0,1,91.07,281.85Z"/><circle class="cls-9" cx="24.16" cy="221.44" r="5.11"/><circle class="cls-9" cx="24.16" cy="235.74" r="5.11"/><circle class="cls-9" cx="24.16" cy="250.03" r="5.11"/><circle class="cls-9" cx="24.16" cy="264.33" r="5.11"/><circle class="cls-9" cx="24.16" cy="278.62" r="5.11"/><circle class="cls-9" cx="24.16" cy="291.89" r="5.11"/><path class="cls-9" d="M65.51,208.17H23.65a4.58,4.58,0,0,1-4.59-4.59h0a4.59,4.59,0,0,1,4.59-4.6H65.51a4.59,4.59,0,0,1,4.6,4.6h0A4.59,4.59,0,0,1,65.51,208.17Z"/><path class="cls-9" d="M504.12,46.62H448.93a3.53,3.53,0,0,1-3.54-3.54h0a3.54,3.54,0,0,1,3.54-3.55h55.19a3.55,3.55,0,0,1,3.55,3.55h0A3.54,3.54,0,0,1,504.12,46.62Z"/><circle class="cls-9" cx="518.34" cy="42.91" r="5.11"/><rect class="cls-10" x="21" y="35" width="16" height="16"/><rect class="cls-10" x="357" y="227" width="53" height="14"/><rect class="cls-10" x="497" y="332" width="33" height="12"/><rect class="cls-1" x="431" y="309" width="99" height="12"/><rect class="cls-3" x="128" y="227" width="46" height="46" rx="23"/></g></g></svg>