<svg xmlns="http://www.w3.org/2000/svg" xmlns:xlink="http://www.w3.org/1999/xlink" viewBox="0 0 506.44 330.63"><defs><style>.cls-1{fill:#606161;}.cls-2{fill:#262626;}.cls-3{fill:#cd2648;}.cls-4{fill:#f2d234;}.cls-5{fill:#87c540;}.cls-6{fill:#383838;}.cls-7{fill:#40403f;}.cls-8{fill:url(#Gradiente_sem_nome_3);}.cls-9{fill:#fff;}.cls-10{fill:#702e17;stroke:#dc3d26;stroke-miterlimit:10;}</style><linearGradient id="Gradiente_sem_nome_3" x1="506.33" y1="218.36" x2="428.58" y2="187.87" gradientTransform="matrix(1, 0, 0, -1, 0, 332.99)" gradientUnits="userSpaceOnUse"><stop offset="0" stop-color="#c51f4a"/><stop offset="1" stop-color="#3e54a4"/></linearGradient></defs><g id="Camada_2" data-name="Camada 2"><g id="Camada_3" data-name="Camada 3"><g id="Layer_2" data-name="Layer 2"><path class="cls-1" d="M497.1,330.63H9.56a9.35,9.35,0,0,1-9.34-9.34V9.34A9.34,9.34,0,0,1,9.56,0H497.1a9.34,9.34,0,0,1,9.34,9.34v312A9.35,9.35,0,0,1,497.1,330.63Z"/><path class="cls-2" d="M506.44,43H.22V9.34A9.34,9.34,0,0,1,9.56,0H497.1a9.34,9.34,0,0,1,9.34,9.34Z"/><circle class="cls-3" cx="18.9" cy="21.48" r="6.54"/><circle class="cls-4" cx="43.19" cy="21.48" r="6.54"/><circle class="cls-5" cx="66.54" cy="21.48" r="6.54"/><path class="cls-6" d="M36.43,330.63H9.56a9.35,9.35,0,0,1-9.34-9.34V73.36H36.43Z"/><path class="cls-7" d="M402.54,330.21h94.34a9.34,9.34,0,0,0,9.33-9.34V42.54H402.54Z"/><rect class="cls-6" x="405.35" y="73.36" width="21.48" height="256.84"/><rect class="cls-7" y="42.54" width="506.21" height="30.82"/><rect class="cls-6" x="36.43" y="73.36" width="366.12" height="20.55"/><rect class="cls-7" x="39.23" y="75.23" width="81.26" height="17.75"/><path class="cls-6" d="M462.7,73.36h43.51V320.87a9.34,9.34,0,0,1-9.33,9.34H429.63V73.36H462.7"/><rect class="cls-7" x="467.92" y="73.36" width="38.29" height="17.75"/><rect class="cls-8" x="435.23" y="97.65" width="64.44" height="64.44"/><rect class="cls-9" x="143.83" y="126.6" width="151.3" height="151.3"/><polygon class="cls-2" points="277.75 241.78 267.12 232.2 267.36 246.71 270.81 240.59 277.75 241.78"/><rect class="cls-10" x="14.01" y="48.15" width="14.94" height="14.94"/><path class="cls-3" d="M214.3,194.61a3.32,3.32,0,0,1-.57,1.92,3.72,3.72,0,0,1-1.62,1.3,6.35,6.35,0,0,1-2.55.46,7,7,0,0,1-2.77-.48,6.36,6.36,0,0,1-1.85-1.2l1.39-1.55a5.12,5.12,0,0,0,1.43.87,4.82,4.82,0,0,0,1.72.31,2.91,2.91,0,0,0,1-.17,1.5,1.5,0,0,0,.68-.49,1.22,1.22,0,0,0,.24-.77,1.27,1.27,0,0,0-.19-.72,1.67,1.67,0,0,0-.66-.53,6.85,6.85,0,0,0-1.27-.48,10.19,10.19,0,0,1-2.18-.92,3.49,3.49,0,0,1-1.21-1.17,3.09,3.09,0,0,1-.37-1.55,2.88,2.88,0,0,1,.59-1.82,3.64,3.64,0,0,1,1.6-1.16,5.78,5.78,0,0,1,2.2-.4,6.73,6.73,0,0,1,2.39.39,5.2,5.2,0,0,1,1.79,1.11l-1.3,1.5a4.14,4.14,0,0,0-2.67-1,2.81,2.81,0,0,0-.91.14,1.34,1.34,0,0,0-.62.38.88.88,0,0,0-.21.62,1,1,0,0,0,.2.63,2,2,0,0,0,.73.48c.35.15.83.31,1.45.51a8.53,8.53,0,0,1,1.89.8,3.31,3.31,0,0,1,1.2,1.18A3.53,3.53,0,0,1,214.3,194.61Z"/><path class="cls-3" d="M224.22,186.37v7.75a4.56,4.56,0,0,1-.49,2.14,3.45,3.45,0,0,1-1.44,1.49,4.91,4.91,0,0,1-2.41.55,5,5,0,0,1-2.42-.53,3.37,3.37,0,0,1-1.44-1.48,4.7,4.7,0,0,1-.48-2.18v-7.75h2.77v6.72a7,7,0,0,0,.29,2.36,1.43,1.43,0,0,0,2.57,0,7.35,7.35,0,0,0,.29-2.36v-6.72h2.76Z"/><path class="cls-3" d="M231.65,195.51h-3.4l-.62,2.51h-2.89l3.57-11.65h3.34L235.22,198h-2.95Zm-3-2h2.53l-1.26-5.15Z"/><path class="cls-3" d="M203.8,206.54l.66,11.65h-2.4l-.14-5c0-.47,0-.88,0-1.24s0-.71,0-1,0-.65,0-1,.06-.68.09-1.08l-1.31,7.33h-2.08l-1.41-7.33c0,.38.06.72.08,1.05s.05.65.06,1,0,.68,0,1.06,0,.81,0,1.27l-.08,4.94H195l.65-11.65h2.83l1.3,7.53,1.22-7.53Z"/><path class="cls-3" d="M211.48,215.68h-3.41l-.62,2.52h-2.88l3.57-11.65h3.34l3.57,11.65h-3Zm-3-2H211l-1.26-5.16Z"/><path class="cls-3" d="M224.28,210.08a3.37,3.37,0,0,1-.3,1.46,3.3,3.3,0,0,1-.84,1.05,4.41,4.41,0,0,1-1.19.69L225,218.2h-3.12l-2.52-4.45h-.78v4.45h-2.76V206.56h3.66a6.11,6.11,0,0,1,3.59.87A3,3,0,0,1,224.28,210.08Zm-2.83,0a1.44,1.44,0,0,0-.5-1.22,2.31,2.31,0,0,0-1.46-.39h-.91v3.37h1a2,2,0,0,0,1.37-.42A1.68,1.68,0,0,0,221.45,210.08Z"/><path class="cls-3" d="M230.94,206.25a5.8,5.8,0,0,1,2.13.34,5.64,5.64,0,0,1,1.61.93l-1.35,1.63a4.33,4.33,0,0,0-1.06-.62,3.21,3.21,0,0,0-1.26-.23,2.31,2.31,0,0,0-1.34.42,2.91,2.91,0,0,0-1,1.3,7.8,7.8,0,0,0,0,4.62,2.71,2.71,0,0,0,1,1.3,2.41,2.41,0,0,0,1.4.42,3,3,0,0,0,1.45-.33,8.64,8.64,0,0,0,1.07-.71l1.25,1.6A5.94,5.94,0,0,1,233.2,218a5.21,5.21,0,0,1-2.3.46,5.47,5.47,0,0,1-2.8-.7,4.74,4.74,0,0,1-1.92-2.06,7.29,7.29,0,0,1-.69-3.36,7.08,7.08,0,0,1,.72-3.32,5.07,5.07,0,0,1,1.95-2.07A5.33,5.33,0,0,1,230.94,206.25Z"/><path class="cls-3" d="M241.74,215.68h-3.41l-.61,2.52h-2.89l3.57-11.65h3.34l3.57,11.65h-2.95Zm-3-2h2.52L240,208.52Z"/></g></g></g></svg>